<svg xmlns="http://www.w3.org/2000/svg" width="700" height="700">
  <path fill="#007dc3" d="M0 700h700V0H0z"/>
  <path fill="#FFF" d="M176.61 231.83V175.8h-11.44v21.77h-16.13V175.8h-11.21v56.03h11.21v-24.98h16.13v24.98zm94.24-18.3V175.8H259.4v35.9c0 2.97 0 3.78-.16 5-.49 4.1-3.63 6.52-8.55 6.52-3.7 0-6.37-1.37-7.66-3.87-.64-1.2-.97-3.22-.97-6.7V175.8h-11.53v39.03c0 5.4.57 7.66 2.42 10.56 3.15 4.92 9.44 7.5 17.98 7.5 12.1 0 17.58-6.13 19.03-10.56.8-2.42.89-3.47.89-8.8zm110.22 18.3-5-56.04H361.7l-7.57 27.82a95.13 95.13 0 0 0-2.02 9.11c-.48-2.9-.89-4.84-1.94-8.87l-7.33-28.06H328.4l-5.24 56.04h11.2l1.95-29.27c.24-3.47.4-6.77.4-10.08.56 3.23 1.53 7.18 2.25 9.92l7.99 29.43h9.6l8.86-30.64c.97-3.39 1.45-5.4 2.1-8.63 0 2.98.16 5.8.4 9.35l2.1 29.92h11.05zm94.41 0-17.65-56.2h-12.18l-18.38 56.2h11.77l3.95-13.3h16.45l3.95 13.3h12.1zm-18.78-22.66h-10.97c1.21-3.7 1.94-6.37 2.98-10.4 1.05-4.2 2.67-10.8 2.67-10.8s1.69 7.33 2.25 9.91c1.22 5.4 3.07 11.3 3.07 11.3zm105.49 22.66V175.8h-10.73l.24 22.9c.08 3.87.49 11.05.89 15.4-1.12-4.03-3.3-9.92-6.13-15.89l-10.72-22.41h-12.5v56.04h10.89l-.33-23.95c-.07-4.68-.16-11.29-.56-15.88 1.05 3.46 4.43 11.37 7.58 18.38l9.6 21.45h11.77zM178.47 379.54s-10.24-17.75-13.46-21.78c-.73-.97-1.21-1.45-2.34-2.34 6.93-.16 12.5-7.1 12.5-15.48 0-9.84-6.54-16.45-16.45-16.45h-20.89v56.05h11.05v-23.4c.72.09 1.2.25 1.77.5 2.02.88 3.71 3.62 9.27 13.7 2.18 3.95 3.07 5.48 5.25 9.2h13.3zm-15.16-39.36c0 2.34-.8 4.35-2.18 5.64-1.53 1.37-3.62 1.86-8.46 1.86h-3.8v-15.16h4.04c2.74 0 5.08.32 6.37.8 2.66.97 4.03 3.4 4.03 6.86zm69.27 39.36v-56.06H220.8v56.06zm88.44-4.36v-26.77h-21.68l1.45 9.2h8.54v12.73a13.24 13.24 0 0 1-6.37 1.37c-3.62 0-6.69-1.12-8.79-3.14-2.82-2.82-4.19-7.98-4.19-15.97 0-8.39.97-14.43 4.76-18.06 1.93-1.86 4.75-2.83 8.06-2.83 4.27 0 8.06 1.38 11.7 4.36l5.96-7.02c-4.92-4.27-11.05-6.45-17.82-6.45-5.32 0-9.52 1.21-13.63 3.95-7.82 5.24-11.69 13.63-11.69 25.48 0 8.4 1.86 14.36 5.97 19.6 4.52 5.8 10.72 8.55 19.1 8.55 6.62 0 12.9-1.61 18.63-5zm85.14 4.36v-56.06H394.7v21.77h-16.11v-21.77h-11.21v56.06h11.21v-25.01h16.11v25.01zm82.72-56.06h-40.4v9.37h13.7v46.69h11.45v-46.69h13.39zm78.14 38.4c0-8.3-5-14.2-14.2-16.7l-6.76-1.85c-4.68-1.29-6.21-2.74-6.21-5.64 0-3.8 3.22-6.45 7.82-6.45 4.2 0 7.98 1.2 13.06 4.27l5.32-8.06c-4.91-3.55-11.85-5.65-18.7-5.65-11.86 0-20.08 7.1-20.08 17.34 0 3.14.8 6.05 2.34 8.55 2.01 3.38 5.48 5.56 11.04 7.1l6.21 1.69c5 1.37 7.34 3.63 7.34 7.26 0 5-3.39 7.66-9.84 7.66-5.64 0-10.15-1.78-15.4-4.52l-4.19 8.79a40.07 40.07 0 0 0 19.1 5.08c13.96 0 23.15-7.5 23.15-18.87zm-367.73 109.3h-11.86l-4.6 21.3c-1.2 5.47-2.9 16.85-3.06 18.62 0 0-1.37-9.6-2.42-14.84l-5.16-25.08h-12.33l-5 22.66a192.59 192.59 0 0 0-2.9 17.9s-.73-7.98-2.99-18.46l-4.84-22.1H132.2l13.39 56.53h12.82l4.67-22.98c1.7-8.23 2.66-16.13 2.66-16.13.17 1.53 1.05 8.79 2.66 16.29l5 22.82h12.34l13.55-56.53zm94.96 56.06-17.65-56.21h-12.18l-18.38 56.2h11.77l3.95-13.3h16.45l3.95 13.3h12.1zm-18.78-22.67H264.5c1.21-3.7 1.94-6.37 2.98-10.4 1.05-4.2 2.66-10.8 2.66-10.8s1.7 7.33 2.26 9.91c1.21 5.4 3.07 11.3 3.07 11.3zm102.71-33.39H337.8v9.35h13.7v46.71h11.45v-46.71h13.38zm89.68 51.78-5.16-7.1c-3.3 2.66-6.29 3.63-9.6 3.63-4.83 0-8.54-2.18-10.8-6.3-1.7-3.06-2.34-7.33-2.34-15 0-6.52.97-11.2 3.15-14.43a11.62 11.62 0 0 1 9.5-4.84c3.16 0 6.14 1.05 8.96 3.15l5.08-7.66c-3.06-2.66-8.63-4.44-14.19-4.44-9.03 0-17.1 4.84-21.45 12.99-2.58 4.84-3.79 10.4-3.79 17.42 0 8.22 2.26 15 6.78 20.08 4.59 5.24 10.56 7.74 18.3 7.74 6.37 0 11.13-1.62 15.56-5.24zm94.33 4.28v-56.06h-11.47v21.77h-16.11v-21.77H523.4v56.06h11.21v-25.01h16.11v25.01z"/>
</svg>