<?xml version="1.0" encoding="UTF-8"?> <svg xmlns="http://www.w3.org/2000/svg" id="Layer_1" data-name="Layer 1" viewBox="0 0 395.86 257.08"><defs><style>.cls-1{fill:#fff;}</style></defs><path class="cls-1" d="M383.57,0H12.28A12.3,12.3,0,0,0,0,12.28V244.8a12.3,12.3,0,0,0,12.28,12.28H383.57a12.3,12.3,0,0,0,12.29-12.28V12.28A12.3,12.3,0,0,0,383.57,0ZM12.28,8.38H383.57a3.91,3.91,0,0,1,3.91,3.9V196.92H8.38V12.28A3.91,3.91,0,0,1,12.28,8.38ZM383.57,248.7H12.28a3.91,3.91,0,0,1-3.9-3.9V201.49h379.1V244.8A3.92,3.92,0,0,1,383.57,248.7Z"></path><path class="cls-1" d="M109.38,26.73,135,182.05H89.2l-2.41-27.92h-16l-2.69,27.92H21.7L44.58,26.73ZM85.61,126.6q-3.39-26.38-6.83-65.24Q71.94,106,70.18,126.6Z"></path><path class="cls-1" d="M147,26.73h31.74q31.72,0,43,2.21A29.82,29.82,0,0,1,240,40.21q7.08,9.06,7.08,28.92,0,18.14-5,24.37T222.39,101q13.31,3,17.89,8t5.7,9.16q1.11,4.17,1.11,23v41H205.45V130.44c0-8.31-.72-13.47-2.18-15.44s-5.27-3-11.45-3v70H147ZM191.82,53.3V87.84q7.56,0,10.6-1.87t3-12.14V65.3q0-7.39-2.92-9.7C200.57,54.08,197,53.3,191.82,53.3Z"></path><path class="cls-1" d="M369.13,94.37H324.3v-27q0-11.78-1.44-14.69t-6.33-2.92q-5.55,0-7,3.54T308,68.65V140.8q0,11.32,1.49,14.77t6.71,3.46c3.33,0,5.51-1.16,6.55-3.46s1.54-7.73,1.54-16.25V119.8h44.83v6q0,24.12-3.78,34.21t-16.72,17.68q-12.93,7.59-31.89,7.59-19.69,0-32.48-6.43t-16.93-17.8q-4.15-11.37-4.16-34.2V81.51q0-16.79,1.28-25.18a33.52,33.52,0,0,1,7.61-16.17q6.35-7.77,17.58-12.23a69.47,69.47,0,0,1,25.82-4.47q19.82,0,32.7,6.91t16.93,17.19q4,10.3,4,32.05Z"></path><path class="cls-1" d="M31,209.6l3.33,26.59H28.42l-.31-4.78H26l-.35,4.78h-6l3-26.59ZM28,226.7q-.45-4.53-.89-11.17-.88,7.64-1.12,11.17Z"></path><path class="cls-1" d="M43.42,214.4l-.1,2a4.64,4.64,0,0,1,1.49-1.81,3.49,3.49,0,0,1,2-.6,3.43,3.43,0,0,1,2.35.8,3.71,3.71,0,0,1,1.18,2,22.38,22.38,0,0,1,.26,4.08v15.27H45V221.1a17,17,0,0,0-.12-2.74.62.62,0,0,0-.69-.5.71.71,0,0,0-.75.57,17,17,0,0,0-.15,3v14.73H37.74V214.4Z"></path><path class="cls-1" d="M61,211.49v3.43h1.51v3.45H61V230a7.22,7.22,0,0,0,.19,2.4c.12.16.64.25,1.55.25v3.51H60.47a13.34,13.34,0,0,1-2.73-.19,2.67,2.67,0,0,1-1.43-.87,3,3,0,0,1-.78-1.56,33.27,33.27,0,0,1-.15-4.13V218.37h-1.2v-3.45h1.2v-3.43Z"></path><path class="cls-1" d="M72,209.6v3.46H66.26V209.6Zm0,4.8v21.79H66.26V214.4Z"></path><path class="cls-1" d="M83.41,223v4.59H76.06V223Z"></path><path class="cls-1" d="M87.61,209.6h4.12a27,27,0,0,1,5.58.37,3.91,3.91,0,0,1,2.37,1.94,10,10,0,0,1,.92,5A9,9,0,0,1,100,221a3.22,3.22,0,0,1-2.56,1.28,4.25,4.25,0,0,1,2.32,1.36,4.32,4.32,0,0,1,.74,1.57,31.26,31.26,0,0,1,.14,3.94v7H95.2v-8.84a7.14,7.14,0,0,0-.28-2.64c-.19-.34-.69-.51-1.49-.51v12H87.61Zm5.82,4.55v5.91a2.27,2.27,0,0,0,1.38-.32q.39-.31.39-2.07V216.2a2.54,2.54,0,0,0-.38-1.66A1.92,1.92,0,0,0,93.43,214.15Z"></path><path class="cls-1" d="M117.89,225.67h-7.23v4.72a6.19,6.19,0,0,0,.18,1.91.67.67,0,0,0,.69.42.83.83,0,0,0,.85-.57,7.32,7.32,0,0,0,.21-2.18v-2.88h5.3v1.61a16.44,16.44,0,0,1-.22,3.11,6.66,6.66,0,0,1-1,2.31,5.2,5.2,0,0,1-2,1.85,6.74,6.74,0,0,1-3,.62,7.7,7.7,0,0,1-3.13-.61,5,5,0,0,1-2.1-1.67,6.54,6.54,0,0,1-1-2.33,18.09,18.09,0,0,1-.29-3.7v-6.36a12.49,12.49,0,0,1,.66-4.51,5,5,0,0,1,2.12-2.53,6.5,6.5,0,0,1,3.4-.88,6.7,6.7,0,0,1,3.88,1.06,5.59,5.59,0,0,1,2.14,2.81,15.37,15.37,0,0,1,.62,4.92Zm-5.6-3.54v-1.59a9.5,9.5,0,0,0-.15-2.18.62.62,0,0,0-.63-.5.67.67,0,0,0-.72.42,11.5,11.5,0,0,0-.13,2.26v1.59Z"></path><path class="cls-1" d="M134.6,222.63h-5.26v-2.52a5.91,5.91,0,0,0-.18-1.79.67.67,0,0,0-.67-.46.64.64,0,0,0-.65.41,6.29,6.29,0,0,0-.16,1.84v10.28a4.56,4.56,0,0,0,.25,1.75.79.79,0,0,0,.73.58.77.77,0,0,0,.77-.61,8.89,8.89,0,0,0,.19-2.3v-2.59h5c0,1.74-.06,3.05-.16,3.92a7,7,0,0,1-.92,2.67,5.37,5.37,0,0,1-2,2.08,6.41,6.41,0,0,1-3.11.7,6.54,6.54,0,0,1-3.75-1,5.2,5.2,0,0,1-2-2.7,16.12,16.12,0,0,1-.58-4.92v-6.19a14.2,14.2,0,0,1,.47-4.19,5.16,5.16,0,0,1,2-2.52,6.82,6.82,0,0,1,7.46,0,5.2,5.2,0,0,1,2.06,2.77A17.09,17.09,0,0,1,134.6,222.63Z"></path><path class="cls-1" d="M144.56,209.6v3.46h-5.75V209.6Zm0,4.8v21.79h-5.75V214.4Z"></path><path class="cls-1" d="M161.81,209.6v26.59h-5.58v-1.58a5.88,5.88,0,0,1-1.69,1.48,3.75,3.75,0,0,1-1.85.5,3.37,3.37,0,0,1-2.25-.82,3.53,3.53,0,0,1-1.22-1.88,15,15,0,0,1-.28-3.48v-10.2a15.59,15.59,0,0,1,.28-3.57,3.4,3.4,0,0,1,1.23-1.84,3.53,3.53,0,0,1,2.31-.8,4.06,4.06,0,0,1,1.9.45,4.75,4.75,0,0,1,1.57,1.33V209.6Zm-5.58,10.28a5,5,0,0,0-.17-1.61.69.69,0,0,0-.69-.41.67.67,0,0,0-.67.37,5,5,0,0,0-.17,1.65v10.67a5.56,5.56,0,0,0,.17,1.76.61.61,0,0,0,.63.41.69.69,0,0,0,.72-.47,8.42,8.42,0,0,0,.18-2.28Z"></path><path class="cls-1" d="M172.11,209.6v3.46h-5.75V209.6Zm0,4.8v21.79h-5.75V214.4Z"></path><path class="cls-1" d="M188.22,214.4l-2.61,21.79h-7.3L175.5,214.4h5l1.57,15.91c.12-1.17.34-4,.63-8.55.16-2.53.34-5,.54-7.36Z"></path><path class="cls-1" d="M197.33,209.6v3.46h-5.75V209.6Zm0,4.8v21.79h-5.75V214.4Z"></path><path class="cls-1" d="M213.29,221.36h-4.95v-1.18a7.26,7.26,0,0,0-.15-1.92c-.09-.27-.33-.4-.72-.4a.79.79,0,0,0-.71.37,2.16,2.16,0,0,0-.23,1.11,6.46,6.46,0,0,0,.12,1.47,2.25,2.25,0,0,0,.71,1,15,15,0,0,0,2.4,1.62,9.11,9.11,0,0,1,3.2,2.66,7.12,7.12,0,0,1,.75,3.63,10.58,10.58,0,0,1-.57,4,4.17,4.17,0,0,1-1.95,2.09,6.82,6.82,0,0,1-3.28.74,7.89,7.89,0,0,1-3.64-.79,4.31,4.31,0,0,1-2.08-2.14,11,11,0,0,1-.57-4.07v-1.05h4.95v1.38a8.25,8.25,0,0,0,.19,2.28.72.72,0,0,0,.74.52.89.89,0,0,0,.82-.35,2.86,2.86,0,0,0,.24-1.48,3.92,3.92,0,0,0-.3-2A25,25,0,0,0,205,226.6a7.79,7.79,0,0,1-3-3,8.5,8.5,0,0,1-.54-3.18,9.78,9.78,0,0,1,.58-3.86,4.07,4.07,0,0,1,2-1.91,7.45,7.45,0,0,1,3.23-.67,8,8,0,0,1,3.1.55,4.87,4.87,0,0,1,2,1.46,4.19,4.19,0,0,1,.83,1.67,15.31,15.31,0,0,1,.14,2.42Z"></path><path class="cls-1" d="M223.27,214.4l-.09,2.07a5.06,5.06,0,0,1,1.54-1.85,3.57,3.57,0,0,1,2.05-.62,3.92,3.92,0,0,1,3.53,2.47,5.47,5.47,0,0,1,1.59-1.85,3.36,3.36,0,0,1,2-.62,3.45,3.45,0,0,1,2.35.82,3.67,3.67,0,0,1,1.2,2,20.42,20.42,0,0,1,.26,3.86v15.49h-5.42V222a22.32,22.32,0,0,0-.15-3.45c-.11-.45-.36-.67-.74-.67a.76.76,0,0,0-.77.66,19.1,19.1,0,0,0-.17,3.46v14.21H225V222.34a31.9,31.9,0,0,0-.13-3.84.69.69,0,0,0-.73-.64.8.8,0,0,0-.63.33,1.47,1.47,0,0,0-.3.83c0,.32,0,1,0,2.06v15.11h-5.42V214.4Z"></path><path class="cls-1" d="M263.42,221.18H257.6v-4.62a9.44,9.44,0,0,0-.19-2.52.78.78,0,0,0-.82-.5.86.86,0,0,0-.91.61,10.91,10.91,0,0,0-.19,2.63v12.35a10.24,10.24,0,0,0,.19,2.53.82.82,0,0,0,.87.58.8.8,0,0,0,.85-.58,11.74,11.74,0,0,0,.2-2.79v-3.34h5.82v1a23.94,23.94,0,0,1-.49,5.85,5.81,5.81,0,0,1-2.17,3,6.54,6.54,0,0,1-4.14,1.3,7.54,7.54,0,0,1-4.22-1.1,5.33,5.33,0,0,1-2.2-3.05,24.14,24.14,0,0,1-.53-5.85V219a41.46,41.46,0,0,1,.16-4.31,6.67,6.67,0,0,1,1-2.77,5.93,5.93,0,0,1,2.28-2.1,7.13,7.13,0,0,1,3.35-.76,7.25,7.25,0,0,1,4.25,1.18,5.56,5.56,0,0,1,2.2,2.95,20.84,20.84,0,0,1,.52,5.48Z"></path><path class="cls-1" d="M280.52,222.05v5.34a26.2,26.2,0,0,1-.25,4.31,6.74,6.74,0,0,1-1.06,2.56,4.84,4.84,0,0,1-2.1,1.76,7.29,7.29,0,0,1-2.93.57,9,9,0,0,1-3.14-.49,4.22,4.22,0,0,1-2-1.47,6.18,6.18,0,0,1-1-2.36,20.32,20.32,0,0,1-.31-4.16v-5.58a16,16,0,0,1,.55-4.75,5.33,5.33,0,0,1,2-2.75,6.17,6.17,0,0,1,3.67-1,7.16,7.16,0,0,1,3.23.67,5.27,5.27,0,0,1,2.08,1.73,6.57,6.57,0,0,1,1,2.2A16.14,16.14,0,0,1,280.52,222.05Zm-5.58-1.64a8.06,8.06,0,0,0-.16-2.12.62.62,0,0,0-.64-.43.65.65,0,0,0-.67.43,8.06,8.06,0,0,0-.16,2.12v9.83a7.54,7.54,0,0,0,.16,2,.71.71,0,0,0,1.31.05,6.38,6.38,0,0,0,.16-1.84Z"></path><path class="cls-1" d="M289.9,222.84h-5.24v-1.47a12.06,12.06,0,0,1,.49-3.9,5.12,5.12,0,0,1,2-2.41A6.43,6.43,0,0,1,291,214a6.62,6.62,0,0,1,4.28,1.19,4.73,4.73,0,0,1,1.72,2.92,55.15,55.15,0,0,1,.29,7.14v10.94h-5.43v-1.95A4.09,4.09,0,0,1,290.5,236a3.2,3.2,0,0,1-1.93.59,4.25,4.25,0,0,1-2.69-1c-.81-.66-1.22-2.08-1.22-4.28v-1.79a6.1,6.1,0,0,1,.65-3.34,9,9,0,0,1,3.22-2.06c1.84-.86,2.82-1.43,3-1.73a5.42,5.42,0,0,0,.19-1.81,6.82,6.82,0,0,0-.22-2.22.73.73,0,0,0-.71-.52.65.65,0,0,0-.7.43,10.62,10.62,0,0,0-.14,2.26Zm1.77,3a4.76,4.76,0,0,0-1.56,1.95,9.42,9.42,0,0,0-.21,2.27,8.07,8.07,0,0,0,.18,2.18.72.72,0,0,0,.74.49.68.68,0,0,0,.69-.38,7.6,7.6,0,0,0,.16-2Z"></path><path class="cls-1" d="M307.47,209.6v26.59h-5.75V209.6Z"></path><path class="cls-1" d="M317.77,209.6v3.46H312V209.6Zm0,4.8v21.79H312V214.4Z"></path><path class="cls-1" d="M328.21,211.49v3.43h1.51v3.45h-1.51V230a7.22,7.22,0,0,0,.19,2.4c.12.16.64.25,1.55.25v3.51H327.7A13.22,13.22,0,0,1,325,236a2.66,2.66,0,0,1-1.44-.87,3,3,0,0,1-.77-1.56,30.6,30.6,0,0,1-.16-4.13V218.37h-1.2v-3.45h1.2v-3.43Z"></path><path class="cls-1" d="M339.25,209.6v3.46H333.5V209.6Zm0,4.8v21.79H333.5V214.4Z"></path><path class="cls-1" d="M356.43,222.05v5.34a26.2,26.2,0,0,1-.25,4.31,6.58,6.58,0,0,1-1.06,2.56A4.84,4.84,0,0,1,353,236a7.29,7.29,0,0,1-2.93.57,9,9,0,0,1-3.14-.49,4.27,4.27,0,0,1-2-1.47,6.18,6.18,0,0,1-1-2.36,20.32,20.32,0,0,1-.31-4.16v-5.58a16,16,0,0,1,.56-4.75,5.32,5.32,0,0,1,2-2.75,6.17,6.17,0,0,1,3.67-1,7.16,7.16,0,0,1,3.23.67,5.27,5.27,0,0,1,2.08,1.73,6.57,6.57,0,0,1,1,2.2A16.14,16.14,0,0,1,356.43,222.05Zm-5.58-1.64a8.06,8.06,0,0,0-.16-2.12.62.62,0,0,0-.64-.43.65.65,0,0,0-.67.43,8.06,8.06,0,0,0-.16,2.12v9.83a7.54,7.54,0,0,0,.16,2,.71.71,0,0,0,1.31.05,6.38,6.38,0,0,0,.16-1.84Z"></path><path class="cls-1" d="M366.5,214.4l-.1,2a4.56,4.56,0,0,1,1.49-1.81,3.78,3.78,0,0,1,4.37.2,3.71,3.71,0,0,1,1.18,2,22.38,22.38,0,0,1,.26,4.08v15.27h-5.59V221.1a17,17,0,0,0-.12-2.74.63.63,0,0,0-.69-.5.7.7,0,0,0-.75.57,17,17,0,0,0-.15,3v14.73h-5.58V214.4Z"></path></svg> 